<svg xmlns="http://www.w3.org/2000/svg" xmlns:xlink="http://www.w3.org/1999/xlink" width="500" zoomAndPan="magnify" viewBox="0 0 375 74.999997" height="100" preserveAspectRatio="xMidYMid meet" version="1.0"><defs><g/><clipPath id="e5f56361f2"><path d="M 190 1.886719 L 273 1.886719 L 273 73.136719 L 190 73.136719 Z M 190 1.886719 " clip-rule="nonzero"/></clipPath></defs><g fill="#004aad" fill-opacity="1"><g transform="translate(66.644265, 22.655329)"><g><path d="M 2.25 -17.546875 L 6.015625 -17.546875 L 6.015625 0 L 2.25 0 Z M 2.25 -17.546875 "/></g></g></g><g fill="#004aad" fill-opacity="1"><g transform="translate(73.666139, 22.655329)"><g><path d="M 2.25 -17.546875 L 5.640625 -17.546875 L 14.171875 -6.640625 L 14.171875 -17.546875 L 17.9375 -17.546875 L 17.9375 0 L 14.546875 0 L 6.015625 -10.90625 L 6.015625 0 L 2.25 0 Z M 2.25 -17.546875 "/></g></g></g><g fill="#004aad" fill-opacity="1"><g transform="translate(92.600307, 22.655329)"><g><path d="M 0.375 -17.546875 L 4.390625 -17.546875 L 8.984375 -4.640625 L 9.078125 -4.640625 L 13.671875 -17.546875 L 17.6875 -17.546875 L 11.15625 0 L 6.890625 0 Z M 0.375 -17.546875 "/></g></g></g><g fill="#004aad" fill-opacity="1"><g transform="translate(109.402798, 22.655329)"><g><path d="M 6.890625 -17.546875 L 11.15625 -17.546875 L 17.9375 0 L 13.921875 0 L 12.40625 -4.015625 L 5.640625 -4.015625 L 4.140625 0 L 0.125 0 Z M 11.15625 -7.390625 L 9.078125 -13.171875 L 8.984375 -13.171875 L 6.890625 -7.390625 Z M 11.15625 -7.390625 "/></g></g></g><g fill="#004aad" fill-opacity="1"><g transform="translate(126.205291, 22.655329)"><g><path d="M 7.265625 0.375 C 6.128906 0.375 5.140625 0.234375 4.296875 -0.046875 C 3.453125 -0.328125 2.75 -0.644531 2.1875 -1 C 1.507812 -1.40625 0.945312 -1.863281 0.5 -2.375 L 3.015625 -4.890625 C 3.304688 -4.535156 3.664062 -4.21875 4.09375 -3.9375 C 4.4375 -3.707031 4.863281 -3.492188 5.375 -3.296875 C 5.882812 -3.109375 6.472656 -3.015625 7.140625 -3.015625 C 8.148438 -3.015625 8.882812 -3.203125 9.34375 -3.578125 C 9.800781 -3.960938 10.03125 -4.441406 10.03125 -5.015625 C 10.03125 -5.515625 9.8125 -5.910156 9.375 -6.203125 C 8.945312 -6.492188 8.40625 -6.753906 7.75 -6.984375 C 7.09375 -7.222656 6.390625 -7.46875 5.640625 -7.71875 C 4.890625 -7.96875 4.1875 -8.296875 3.53125 -8.703125 C 2.882812 -9.117188 2.34375 -9.648438 1.90625 -10.296875 C 1.46875 -10.941406 1.25 -11.773438 1.25 -12.796875 C 1.25 -13.472656 1.394531 -14.125 1.6875 -14.75 C 1.976562 -15.382812 2.394531 -15.9375 2.9375 -16.40625 C 3.488281 -16.875 4.160156 -17.242188 4.953125 -17.515625 C 5.742188 -17.796875 6.644531 -17.9375 7.65625 -17.9375 C 8.625 -17.9375 9.476562 -17.804688 10.21875 -17.546875 C 10.957031 -17.296875 11.570312 -17.023438 12.0625 -16.734375 C 12.632812 -16.378906 13.128906 -15.984375 13.546875 -15.546875 L 11.03125 -13.046875 C 10.769531 -13.328125 10.476562 -13.578125 10.15625 -13.796875 C 9.875 -13.972656 9.53125 -14.140625 9.125 -14.296875 C 8.726562 -14.460938 8.28125 -14.546875 7.78125 -14.546875 C 6.820312 -14.546875 6.140625 -14.378906 5.734375 -14.046875 C 5.335938 -13.710938 5.140625 -13.296875 5.140625 -12.796875 C 5.140625 -12.285156 5.351562 -11.882812 5.78125 -11.59375 C 6.21875 -11.300781 6.765625 -11.035156 7.421875 -10.796875 C 8.078125 -10.566406 8.78125 -10.328125 9.53125 -10.078125 C 10.28125 -9.828125 10.976562 -9.492188 11.625 -9.078125 C 12.28125 -8.671875 12.828125 -8.144531 13.265625 -7.5 C 13.703125 -6.863281 13.921875 -6.035156 13.921875 -5.015625 C 13.921875 -4.296875 13.769531 -3.609375 13.46875 -2.953125 C 13.164062 -2.304688 12.722656 -1.734375 12.140625 -1.234375 C 11.566406 -0.742188 10.867188 -0.351562 10.046875 -0.0625 C 9.234375 0.226562 8.304688 0.375 7.265625 0.375 Z M 7.265625 0.375 "/></g></g></g><g fill="#004aad" fill-opacity="1"><g transform="translate(139.622185, 22.655329)"><g><path d="M 2.25 -17.546875 L 6.015625 -17.546875 L 6.015625 0 L 2.25 0 Z M 2.25 -17.546875 "/></g></g></g><g fill="#004aad" fill-opacity="1"><g transform="translate(146.644056, 22.655329)"><g><path d="M 0.375 -17.546875 L 4.390625 -17.546875 L 8.984375 -4.640625 L 9.078125 -4.640625 L 13.671875 -17.546875 L 17.6875 -17.546875 L 11.15625 0 L 6.890625 0 Z M 0.375 -17.546875 "/></g></g></g><g fill="#004aad" fill-opacity="1"><g transform="translate(163.446544, 22.655329)"><g><path d="M 2.25 -17.546875 L 15.296875 -17.546875 L 15.296875 -14.046875 L 6.015625 -14.046875 L 6.015625 -10.65625 L 13.296875 -10.65625 L 13.296875 -7.265625 L 6.015625 -7.265625 L 6.015625 -3.515625 L 15.546875 -3.515625 L 15.546875 0 L 2.25 0 Z M 2.25 -17.546875 "/></g></g></g><g fill="#004aad" fill-opacity="1"><g transform="translate(83.827157, 45.14725)"><g><path d="M 6.890625 -17.546875 L 11.15625 -17.546875 L 17.9375 0 L 13.921875 0 L 12.40625 -4.015625 L 5.640625 -4.015625 L 4.140625 0 L 0.125 0 Z M 11.15625 -7.390625 L 9.078125 -13.171875 L 8.984375 -13.171875 L 6.890625 -7.390625 Z M 11.15625 -7.390625 "/></g></g></g><g fill="#004aad" fill-opacity="1"><g transform="translate(100.629649, 45.14725)"><g><path d="M 2.25 -17.546875 L 5.640625 -17.546875 L 14.171875 -6.640625 L 14.171875 -17.546875 L 17.9375 -17.546875 L 17.9375 0 L 14.546875 0 L 6.015625 -10.90625 L 6.015625 0 L 2.25 0 Z M 2.25 -17.546875 "/></g></g></g><g fill="#004aad" fill-opacity="1"><g transform="translate(119.563817, 45.14725)"><g><path d="M 2.25 -17.546875 L 6.015625 -17.546875 L 6.015625 0 L 2.25 0 Z M 2.25 -17.546875 "/></g></g></g><g fill="#004aad" fill-opacity="1"><g transform="translate(126.58569, 45.14725)"><g><path d="M 2.25 -17.546875 L 5.640625 -17.546875 L 11.65625 -10.03125 L 17.6875 -17.546875 L 21.0625 -17.546875 L 21.0625 0 L 17.296875 0 L 17.296875 -11.53125 L 11.65625 -4.515625 L 6.015625 -11.53125 L 6.015625 0 L 2.25 0 Z M 2.25 -17.546875 "/></g></g></g><g fill="#004aad" fill-opacity="1"><g transform="translate(148.654666, 45.14725)"><g><path d="M 6.890625 -17.546875 L 11.15625 -17.546875 L 17.9375 0 L 13.921875 0 L 12.40625 -4.015625 L 5.640625 -4.015625 L 4.140625 0 L 0.125 0 Z M 11.15625 -7.390625 L 9.078125 -13.171875 L 8.984375 -13.171875 L 6.890625 -7.390625 Z M 11.15625 -7.390625 "/></g></g></g><g fill="#004aad" fill-opacity="1"><g transform="translate(165.457155, 45.14725)"><g><path d="M 2.25 -17.546875 L 6.015625 -17.546875 L 6.015625 -3.515625 L 14.171875 -3.515625 L 14.171875 0 L 2.25 0 Z M 2.25 -17.546875 "/></g></g></g><g fill="#004aad" fill-opacity="1"><g transform="translate(124.200156, 67.639172)"><g><path d="M 2.25 -17.546875 L 5.640625 -17.546875 L 11.65625 -10.03125 L 17.6875 -17.546875 L 21.0625 -17.546875 L 21.0625 0 L 17.296875 0 L 17.296875 -11.53125 L 11.65625 -4.515625 L 6.015625 -11.53125 L 6.015625 0 L 2.25 0 Z M 2.25 -17.546875 "/></g></g></g><g fill="#004aad" fill-opacity="1"><g transform="translate(146.269135, 67.639172)"><g><path d="M 6.890625 -17.546875 L 11.15625 -17.546875 L 17.9375 0 L 13.921875 0 L 12.40625 -4.015625 L 5.640625 -4.015625 L 4.140625 0 L 0.125 0 Z M 11.15625 -7.390625 L 9.078125 -13.171875 L 8.984375 -13.171875 L 6.890625 -7.390625 Z M 11.15625 -7.390625 "/></g></g></g><g fill="#004aad" fill-opacity="1"><g transform="translate(163.071626, 67.639172)"><g><path d="M 2.25 -17.546875 L 9.65625 -17.546875 C 10.59375 -17.546875 11.441406 -17.398438 12.203125 -17.109375 C 12.972656 -16.816406 13.632812 -16.40625 14.1875 -15.875 C 14.738281 -15.351562 15.164062 -14.734375 15.46875 -14.015625 C 15.769531 -13.296875 15.921875 -12.507812 15.921875 -11.65625 C 15.921875 -10.800781 15.769531 -10.015625 15.46875 -9.296875 C 15.164062 -8.578125 14.738281 -7.953125 14.1875 -7.421875 C 13.632812 -6.898438 12.972656 -6.492188 12.203125 -6.203125 C 11.441406 -5.910156 10.59375 -5.765625 9.65625 -5.765625 L 6.015625 -5.765625 L 6.015625 0 L 2.25 0 Z M 9.53125 -9.28125 C 10.28125 -9.28125 10.882812 -9.5 11.34375 -9.9375 C 11.800781 -10.382812 12.03125 -10.957031 12.03125 -11.65625 C 12.03125 -12.363281 11.800781 -12.9375 11.34375 -13.375 C 10.882812 -13.820312 10.28125 -14.046875 9.53125 -14.046875 L 6.015625 -14.046875 L 6.015625 -9.28125 Z M 9.53125 -9.28125 "/></g></g></g><path fill="#004aad" d="M 250.613281 36.875 C 250.613281 38.21875 249.523438 39.3125 248.183594 39.3125 C 246.839844 39.3125 245.753906 38.21875 245.753906 36.875 C 245.753906 35.527344 246.839844 34.433594 248.183594 34.433594 C 249.523438 34.433594 250.613281 35.527344 250.613281 36.875 Z M 250.613281 36.875 " fill-opacity="1" fill-rule="nonzero"/><g clip-path="url(#e5f56361f2)"><path fill="#004aad" d="M 218.632812 25.929688 L 218.625 24.46875 C 221.769531 23.566406 224.613281 21.753906 226.78125 19.242188 C 229.445312 16.15625 230.910156 12.203125 230.910156 8.113281 L 230.910156 1.878906 L 218.109375 3.027344 C 215.222656 3.285156 212.53125 4.539062 210.476562 6.511719 C 208.421875 4.539062 205.726562 3.285156 202.84375 3.027344 L 190.042969 1.878906 L 190.042969 8.117188 C 190.042969 12.203125 191.507812 16.15625 194.171875 19.242188 C 196.339844 21.757812 199.183594 23.566406 202.332031 24.46875 L 202.3125 28.371094 C 202.3125 44.753906 213.453125 58.902344 229.089844 62.804688 C 229.09375 65.480469 229.585938 68.308594 230.867188 71.117188 L 231.789062 73.136719 L 233.882812 72.402344 C 238.699219 70.699219 242.644531 67.476562 245.476562 62.980469 C 261.488281 59.351562 273 44.972656 273 28.371094 L 273 25.929688 Z M 248.289062 57.0625 C 249.160156 54.570312 249.578125 52.382812 249.773438 51.03125 C 254.648438 48.394531 258.578125 44.222656 260.914062 39.15625 L 256.503906 37.105469 C 254.453125 41.550781 250.890625 45.148438 246.472656 47.238281 L 245.175781 47.855469 L 245.082031 49.292969 C 245.074219 49.425781 244.179688 61.808594 234.480469 66.839844 C 232.277344 58.585938 237.84375 50.203125 237.90625 50.113281 L 235.898438 48.738281 L 233.894531 47.359375 C 233.691406 47.65625 230.78125 52 229.589844 57.890625 C 216.460938 54.296875 207.175781 42.265625 207.175781 28.378906 L 207.207031 20.414062 L 205.136719 20.097656 C 202.316406 19.664062 199.726562 18.226562 197.847656 16.046875 C 195.949219 13.847656 194.902344 11.03125 194.902344 8.117188 L 194.902344 7.214844 L 202.410156 7.886719 C 204.878906 8.109375 207.117188 9.511719 208.394531 11.636719 L 208.460938 11.742188 L 210.675781 14.707031 L 212.558594 11.636719 C 213.839844 9.507812 216.074219 8.105469 218.542969 7.886719 L 226.050781 7.214844 L 226.050781 8.117188 C 226.050781 11.03125 225.007812 13.847656 223.109375 16.046875 C 221.226562 18.226562 218.640625 19.664062 215.820312 20.097656 L 213.746094 20.414062 L 213.792969 30.8125 L 268.042969 30.8125 C 267.097656 42.71875 259.292969 52.957031 248.289062 57.0625 Z M 248.289062 57.0625 " fill-opacity="1" fill-rule="nonzero"/></g></svg>